<?xml version="1.0" standalone="no"?>
<!DOCTYPE svg PUBLIC "-//W3C//DTD SVG 20010904//EN"
 "http://www.w3.org/TR/2001/REC-SVG-20010904/DTD/svg10.dtd">
<svg version="1.0" xmlns="http://www.w3.org/2000/svg"
 width="200.000000pt" height="207.000000pt" viewBox="0 0 200.000000 207.000000"
 preserveAspectRatio="xMidYMid meet">
<metadata>
Created by potrace 1.10, written by Peter Selinger 2001-2011
</metadata>
<g transform="translate(0.000000,207.000000) scale(0.100000,-0.100000)"
fill="#000000" stroke="none">
<path d="M920 1921 c0 -6 -16 -11 -36 -11 -63 0 -178 -65 -260 -147 -13 -13
-24 -28 -24 -33 0 -5 -6 -13 -13 -17 -36 -22 -103 -182 -109 -259 -3 -55 -8
-53 77 -23 110 38 122 46 129 84 4 19 11 35 15 35 5 0 14 14 21 30 17 41 108
122 156 139 62 22 169 25 209 7 18 -9 39 -16 47 -16 7 0 36 -22 63 -50 67 -66
68 -67 98 -133 15 -33 32 -57 41 -57 9 0 30 -8 48 -18 18 -10 51 -24 73 -31
22 -7 46 -15 54 -18 11 -4 12 2 7 33 -15 79 -55 194 -68 194 -5 0 -8 7 -8 16
0 42 -178 224 -220 224 -6 0 -22 8 -36 17 -46 29 -264 58 -264 34z m152 -35
c135 -29 239 -100 317 -217 44 -65 87 -187 73 -201 -9 -9 -85 16 -110 35 -8 6
-25 33 -39 60 -13 27 -45 72 -70 99 -104 110 -255 142 -387 80 -80 -37 -145
-101 -185 -180 -26 -52 -36 -62 -81 -81 -73 -32 -83 -25 -64 41 52 178 204
325 376 362 82 18 91 18 170 2z"/>
<path d="M620 1405 c-14 -8 -34 -14 -45 -15 -11 0 -35 -9 -53 -20 -18 -11 -41
-20 -52 -20 -20 0 -20 -9 -20 -461 0 -428 1 -463 18 -475 9 -7 25 -14 35 -14
9 0 17 -4 17 -9 0 -11 86 -71 100 -71 5 0 13 -7 18 -16 9 -16 34 -32 88 -58
17 -9 34 -22 37 -31 4 -8 11 -15 18 -15 6 0 29 -14 50 -31 35 -27 41 -29 54
-15 17 17 20 46 5 46 -6 0 -10 41 -10 103 0 61 4 97 9 88 14 -21 19 -1 27 102
7 95 6 98 -15 104 -18 5 -21 12 -21 63 0 50 3 60 20 65 11 3 20 13 20 21 0 9
11 14 30 14 l30 0 0 138 c0 86 -4 142 -11 149 -8 8 -8 17 0 31 11 20 16 152 6
152 -3 0 -15 -6 -26 -12 -17 -10 -23 -10 -26 0 -3 6 -12 12 -22 12 -9 0 -27 7
-39 16 -30 21 -80 35 -87 24 -7 -12 67 -59 105 -67 16 -3 35 -12 42 -21 14
-16 38 -109 31 -116 -6 -6 -65 12 -72 22 -3 4 -18 15 -34 25 -24 15 -28 16
-33 3 -7 -19 3 -36 21 -36 22 0 84 -40 96 -61 5 -11 9 -61 8 -111 -2 -91 -2
-93 -36 -127 -64 -64 -79 -122 -47 -183 13 -25 15 -49 11 -112 -4 -45 -9 -123
-13 -173 -4 -51 -10 -93 -14 -93 -5 0 -64 37 -132 83 -184 125 -206 141 -213
156 -10 25 -7 803 4 814 6 6 20 2 39 -12 36 -25 42 -26 42 -6 0 8 -6 15 -13
15 -7 0 -22 8 -33 18 -10 10 -27 21 -37 25 -24 9 -12 27 16 27 13 0 48 9 79
20 50 17 61 18 95 6 49 -17 48 -36 -2 -60 -22 -10 -41 -22 -43 -27 -2 -5 -12
-9 -23 -9 -13 0 -19 -7 -19 -21 0 -19 4 -21 37 -14 21 4 40 11 43 16 3 4 24
12 45 17 36 7 41 12 45 42 6 39 -9 59 -60 80 -17 7 -30 16 -30 21 0 13 -32 10
-60 -6z"/>
<path d="M1286 1398 c-22 -11 -46 -27 -54 -34 -7 -8 -18 -14 -23 -14 -5 0 -9
-17 -9 -39 0 -36 -2 -39 -34 -45 -19 -4 -39 -13 -46 -21 -7 -8 -20 -15 -29
-15 -9 0 -22 -5 -28 -11 -10 -10 -19 -10 -50 3 -9 4 -3 -135 6 -145 5 -5 12
13 16 40 6 45 31 83 55 83 20 0 109 50 118 65 7 14 15 15 55 4 25 -6 52 -17
58 -25 6 -8 24 -14 39 -14 23 0 27 4 23 20 -3 11 -12 20 -19 20 -8 0 -22 8
-32 18 -9 9 -31 22 -47 27 -41 14 -38 34 8 53 36 14 43 13 110 -8 40 -12 79
-24 87 -27 12 -4 11 -7 -5 -19 -11 -8 -27 -20 -35 -27 -9 -7 -24 -16 -33 -20
-9 -3 -17 -11 -17 -17 0 -6 18 -1 39 10 23 11 42 16 46 10 3 -5 5 -190 5 -411
0 -372 -1 -404 -17 -421 -35 -34 -328 -227 -334 -220 -21 22 -37 338 -19 372
33 62 18 133 -38 180 l-37 30 -1 93 c-1 50 0 103 3 117 5 26 63 70 95 73 18 1
35 33 24 44 -3 4 -6 1 -6 -5 0 -7 -9 -12 -19 -12 -10 0 -21 -7 -24 -14 -3 -8
-22 -18 -41 -22 -20 -3 -36 -10 -36 -15 0 -5 -6 -8 -12 -7 -10 2 -14 -33 -18
-141 l-5 -143 36 -15 c43 -17 82 -84 61 -105 -7 -7 -12 -19 -12 -27 0 -8 -7
-22 -16 -32 -12 -13 -13 -22 -5 -38 7 -12 11 -91 11 -204 0 -160 2 -186 17
-198 13 -11 17 -11 20 -1 3 6 13 12 24 12 10 0 19 4 19 9 0 6 18 20 40 32 22
13 40 26 40 31 0 4 6 8 13 8 7 0 20 9 30 20 9 11 24 20 32 20 8 0 15 5 15 10
0 6 7 10 15 10 8 0 15 5 15 10 0 6 7 10 15 10 7 0 18 6 22 13 4 7 33 28 63 47
30 18 57 35 58 36 2 2 3 196 3 431 -1 236 2 440 7 454 12 33 5 49 -24 49 -13
0 -24 5 -24 10 0 6 -9 10 -20 10 -11 0 -20 5 -20 10 0 6 -10 10 -22 10 -13 0
-36 7 -52 15 -35 18 -32 19 -80 -7z"/>
<path d="M604 1168 c36 -28 169 -99 174 -93 6 6 -25 35 -38 35 -6 0 -20 9 -32
20 -12 11 -30 20 -39 20 -10 0 -22 6 -26 13 -4 8 -21 17 -38 21 l-30 6 29 -22z"/>
<path d="M1361 1176 c-7 -8 -26 -18 -42 -21 -17 -4 -33 -13 -36 -20 -2 -8 -20
-19 -38 -25 -18 -6 -36 -17 -39 -25 -3 -8 -3 -15 0 -15 8 0 95 49 126 71 14
11 30 19 36 19 5 0 15 7 22 15 10 12 10 15 -3 15 -8 0 -20 -6 -26 -14z"/>
</g>
</svg>
